<svg xmlns="http://www.w3.org/2000/svg" width="1600" height="900" viewBox="0 0 1600 900">
  <defs>
    <!-- Background -->
    <linearGradient id="bg" x1="0" y1="0" x2="1" y2="1">
      <stop offset="0" stop-color="#070B14"></stop>
      <stop offset="0.55" stop-color="#0A1222"></stop>
      <stop offset="1" stop-color="#071019"></stop>
    </linearGradient>

    <!-- Panel gradient -->
    <linearGradient id="panel" x1="0" y1="0" x2="0" y2="1">
      <stop offset="0" stop-color="#0E1A2D"></stop>
      <stop offset="1" stop-color="#0A1222"></stop>
    </linearGradient>

    <!-- Node gradient -->
    <linearGradient id="node" x1="0" y1="0" x2="1" y2="1">
      <stop offset="0" stop-color="#0D172A"></stop>
      <stop offset="1" stop-color="#0A1323"></stop>
    </linearGradient>

    <!-- Subtle highlight -->
    <linearGradient id="shine" x1="0" y1="0" x2="1" y2="0">
      <stop offset="0" stop-color="#FFFFFF" stop-opacity="0.10"></stop>
      <stop offset="0.35" stop-color="#FFFFFF" stop-opacity="0.02"></stop>
      <stop offset="1" stop-color="#FFFFFF" stop-opacity="0"></stop>
    </linearGradient>

    <!-- Accent -->
    <linearGradient id="accent" x1="0" y1="0" x2="1" y2="1">
      <stop offset="0" stop-color="#41E6D6"></stop>
      <stop offset="1" stop-color="#2BB6FF"></stop>
    </linearGradient>

    <!-- Soft shadow -->
    <filter id="shadow" x="-30%" y="-30%" width="160%" height="160%">
      <feDropShadow dx="0" dy="10" stdDeviation="14" flood-color="#000000" flood-opacity="0.45"></feDropShadow>
    </filter>

    <!-- Edge glow -->
    <filter id="glow" x="-40%" y="-40%" width="180%" height="180%">
      <feGaussianBlur stdDeviation="2.8" result="b"></feGaussianBlur>
      <feMerge>
        <feMergeNode in="b"></feMergeNode>
        <feMergeNode in="SourceGraphic"></feMergeNode>
      </feMerge>
    </filter>

    <!-- Arrow marker -->
    <marker id="arrow" viewBox="0 0 10 10" refX="9" refY="5" markerWidth="8" markerHeight="8" orient="auto-start-reverse">
      <path d="M 0 0 L 10 5 L 0 10 z" fill="#3BE8D7" opacity="0.85"></path>
    </marker>

    <!-- Dashed arrow marker -->
    <marker id="arrowDim" viewBox="0 0 10 10" refX="9" refY="5" markerWidth="8" markerHeight="8" orient="auto-start-reverse">
      <path d="M 0 0 L 10 5 L 0 10 z" fill="#86A1B8" opacity="0.65"></path>
    </marker>

    <!-- Typography -->
    <style>
      .ui { font-family: ui-sans-serif, system-ui, -apple-system, Segoe UI, Roboto, Helvetica, Arial, "Apple Color Emoji", "Segoe UI Emoji"; }
      .h1 { font-size: 20px; font-weight: 700; fill: #EAF2FF; letter-spacing: 0.2px; }
      .h2 { font-size: 14px; font-weight: 650; fill: #D7E6FF; }
      .h3 { font-size: 12px; font-weight: 650; fill: #CDE0FF; }
      .body { font-size: 12px; fill: #B7C8DD; }
      .muted { font-size: 11px; fill: #8BA3B8; }
      .mono { font-family: ui-monospace, SFMono-Regular, Menlo, Monaco, Consolas, "Liberation Mono", "Courier New", monospace; font-size: 11px; fill: #A9C1D6; }
      .chipText { font-size: 10px; font-weight: 700; letter-spacing: 0.4px; }
      .nav { font-size: 12px; fill: #B9CCE1; }
      .navActive { font-size: 12px; fill: #EAF2FF; font-weight: 700; }
      .btnText { font-size: 11px; font-weight: 700; fill: #071019; letter-spacing: 0.25px; }
      .kpi { font-size: 10px; fill: #9AB3C8; }
      .kpiVal { font-size: 12px; font-weight: 700; fill: #EAF2FF; }
    </style>
  </defs>

  <!-- Background -->
  <rect x="0" y="0" width="1600" height="900" fill="url(#bg)"></rect>

  <!-- Top app bar -->
  <g class="ui">
    <rect x="24" y="18" width="1552" height="56" rx="16" fill="url(#panel)" opacity="0.95" filter="url(#shadow)"></rect>
    <!-- Logo -->
    <g transform="translate(46,34)">
      <circle cx="14" cy="12" r="12" fill="#0B1426" stroke="#2A3B52" stroke-width="1.2"></circle>
      <path d="M10 16 V8 L18 16 V8" fill="none" stroke="url(#accent)" stroke-width="2.2" stroke-linecap="round" stroke-linejoin="round"></path>
      <text x="36" y="16" class="h2">Router Console</text>
    </g>

    <!-- Nav items -->
    <g transform="translate(300,38)">
      <text x="0" y="14" class="navActive">Home</text>
      <text x="70" y="14" class="nav">Connectors</text>
      <text x="160" y="14" class="nav">Channels</text>
      <text x="240" y="14" class="nav">Bots</text>
      <text x="295" y="14" class="nav">Messages</text>
      <text x="375" y="14" class="nav">Filters</text>
      <text x="435" y="14" class="nav">Actions</text>
      <text x="510" y="14" class="nav">Settings</text>
    </g>

    <!-- Status + controls -->
    <g transform="translate(1180,28)">
      <!-- Online chip -->
      <rect x="0" y="8" width="84" height="28" rx="14" fill="#0E2A20" stroke="#1D5D46" stroke-width="1"></rect>
      <circle cx="16" cy="22" r="5" fill="#39E8C7"></circle>
      <text x="30" y="25" class="chipText" fill="#A7FFE8">ONLINE</text>

      <!-- Needs attention -->
      <rect x="92" y="8" width="138" height="28" rx="14" fill="#2A2412" stroke="#6F5D1F" stroke-width="1" opacity="0.95"></rect>
      <circle cx="108" cy="22" r="5" fill="#F6C44D"></circle>
      <text x="122" y="25" class="chipText" fill="#FFE9B0">NEEDS ATTENTION</text>

      <!-- Pause button -->
      <rect x="240" y="8" width="130" height="28" rx="14" fill="url(#accent)" opacity="0.95"></rect>
      <text x="265" y="26" class="btnText">PAUSE ROUTING</text>
    </g>
  </g>

  <!-- Main layout panels -->
  <g class="ui">
    <!-- Left main canvas -->
    <rect x="24" y="92" width="1120" height="684" rx="22" fill="url(#panel)" opacity="0.92" filter="url(#shadow)"></rect>
    <rect x="24" y="92" width="1120" height="684" rx="22" fill="url(#shine)" opacity="0.7"></rect>

    <!-- Right inspector -->
    <rect x="1160" y="92" width="416" height="684" rx="22" fill="url(#panel)" opacity="0.92" filter="url(#shadow)"></rect>
    <rect x="1160" y="92" width="416" height="684" rx="22" fill="url(#shine)" opacity="0.6"></rect>

    <!-- Bottom timeline -->
    <rect x="24" y="792" width="1552" height="84" rx="18" fill="url(#panel)" opacity="0.92" filter="url(#shadow)"></rect>
    <rect x="24" y="792" width="1552" height="84" rx="18" fill="url(#shine)" opacity="0.55"></rect>

    <!-- Main title -->
    <text x="56" y="128" class="h1">Traffic Flow</text>
    <text x="56" y="152" class="body">Signals move through a routing spine with observability and deterministic rule behavior.</text>

    <!-- Small pills under title -->
    <g transform="translate(56,168)">
      <rect x="0" y="0" width="112" height="26" rx="13" fill="#0B1426" stroke="#23364A" stroke-width="1"></rect>
      <text x="12" y="17" class="muted">Mode:</text>
      <text x="56" y="17" class="chipText" fill="#EAF2FF">LIVE</text>

      <rect x="122" y="0" width="164" height="26" rx="13" fill="#0B1426" stroke="#23364A" stroke-width="1"></rect>
      <text x="134" y="17" class="muted">Sampling:</text>
      <text x="202" y="17" class="chipText" fill="#A7FFE8">1 in 20</text>

      <rect x="296" y="0" width="186" height="26" rx="13" fill="#0B1426" stroke="#23364A" stroke-width="1"></rect>
      <text x="308" y="17" class="muted">Trace retention:</text>
      <text x="416" y="17" class="chipText" fill="#EAF2FF">24h</text>
    </g>
  </g>

  <!-- Routing graph inside main canvas -->
  <g class="ui" transform="translate(24,92)">
    <!-- Graph background grid -->
    <g opacity="0.12">
      <path d="M40 120 H1080" stroke="#284058" stroke-width="1"></path>
      <path d="M40 220 H1080" stroke="#284058" stroke-width="1"></path>
      <path d="M40 320 H1080" stroke="#284058" stroke-width="1"></path>
      <path d="M40 420 H1080" stroke="#284058" stroke-width="1"></path>
      <path d="M40 520 H1080" stroke="#284058" stroke-width="1"></path>
      <path d="M40 620 H1080" stroke="#284058" stroke-width="1"></path>
      <path d="M140 90 V660" stroke="#23364A" stroke-width="1"></path>
      <path d="M360 90 V660" stroke="#23364A" stroke-width="1"></path>
      <path d="M600 90 V660" stroke="#23364A" stroke-width="1"></path>
      <path d="M840 90 V660" stroke="#23364A" stroke-width="1"></path>
      <path d="M1040 90 V660" stroke="#23364A" stroke-width="1"></path>
    </g>

    <!-- Column labels -->
    <text x="64" y="100" class="muted">INGEST</text>
    <text x="420" y="100" class="muted">FILTER + ENRICH</text>
    <text x="820" y="100" class="muted">DELIVER</text>

    <!-- Nodes: Channels -->
    <g filter="url(#shadow)">
      <rect x="64" y="160" width="300" height="138" rx="20" fill="url(#node)" stroke="#2A3B52" stroke-width="1.2"></rect>
      <rect x="64" y="160" width="300" height="138" rx="20" fill="url(#shine)" opacity="0.45"></rect>
      <text x="92" y="198" class="h2">Channels</text>

      <!-- Status chip -->
      <rect x="258" y="180" width="84" height="24" rx="12" fill="#0E2A20" stroke="#1D5D46" stroke-width="1"></rect>
      <circle cx="272" cy="192" r="4.6" fill="#39E8C7"></circle>
      <text x="284" y="196" class="chipText" fill="#A7FFE8">ONLINE</text>

      <!-- KPIs -->
      <text x="92" y="226" class="kpi">Sources</text>
      <text x="170" y="226" class="kpiVal">3</text>

      <text x="92" y="248" class="kpi">Msgs/min</text>
      <text x="170" y="248" class="kpiVal">18</text>

      <text x="92" y="270" class="kpi">In flight</text>
      <text x="170" y="270" class="kpiVal">2</text>

      <text x="220" y="226" class="kpi">p95 latency</text>
      <text x="308" y="226" class="kpiVal">140ms</text>

      <text x="220" y="248" class="kpi">Error rate</text>
      <text x="308" y="248" class="kpiVal">0.0%</text>

      <text x="92" y="292" class="muted">Last signal: 6s ago</text>
    </g>

    <!-- Nodes: Bots -->
    <g filter="url(#shadow)">
      <rect x="64" y="330" width="300" height="138" rx="20" fill="url(#node)" stroke="#2A3B52" stroke-width="1.2"></rect>
      <rect x="64" y="330" width="300" height="138" rx="20" fill="url(#shine)" opacity="0.45"></rect>
      <text x="92" y="368" class="h2">Bots</text>

      <rect x="258" y="350" width="84" height="24" rx="12" fill="#0E2A20" stroke="#1D5D46" stroke-width="1"></rect>
      <circle cx="272" cy="362" r="4.6" fill="#39E8C7"></circle>
      <text x="284" y="366" class="chipText" fill="#A7FFE8">ONLINE</text>

      <text x="92" y="396" class="kpi">Active</text>
      <text x="170" y="396" class="kpiVal">4</text>

      <text x="92" y="418" class="kpi">Processing</text>
      <text x="170" y="418" class="kpiVal">1</text>

      <text x="92" y="440" class="kpi">Queue</text>
      <text x="170" y="440" class="kpiVal">0</text>

      <text x="220" y="396" class="kpi">p95 latency</text>
      <text x="308" y="396" class="kpiVal">1.4s</text>

      <text x="220" y="418" class="kpi">Tool errors</text>
      <text x="308" y="418" class="kpiVal">0</text>

      <text x="92" y="462" class="muted">Active profile: gpt-5-mini (cost cap enabled)</text>
    </g>

    <!-- Node: Filters -->
    <g filter="url(#shadow)">
      <rect x="440" y="250" width="340" height="168" rx="22" fill="url(#node)" stroke="#2A3B52" stroke-width="1.2"></rect>
      <rect x="440" y="250" width="340" height="168" rx="22" fill="url(#shine)" opacity="0.45"></rect>
      <text x="468" y="288" class="h2">Filters + Enrichment</text>

      <rect x="664" y="270" width="96" height="24" rx="12" fill="#0E2A20" stroke="#1D5D46" stroke-width="1"></rect>
      <circle cx="678" cy="282" r="4.6" fill="#39E8C7"></circle>
      <text x="690" y="286" class="chipText" fill="#A7FFE8">ONLINE</text>

      <text x="468" y="320" class="kpi">Rules</text>
      <text x="528" y="320" class="kpiVal">12</text>

      <text x="468" y="344" class="kpi">Matched</text>
      <text x="528" y="344" class="kpiVal">7</text>

      <text x="468" y="368" class="kpi">Routed</text>
      <text x="528" y="368" class="kpiVal">6</text>

      <text x="620" y="320" class="kpi">Drop rate</text>
      <text x="708" y="320" class="kpiVal">14%</text>

      <text x="620" y="344" class="kpi">Delay</text>
      <text x="708" y="344" class="kpiVal">0s</text>

      <text x="468" y="402" class="muted">Tip: click a node to open Live Trace on the right.</text>
    </g>

    <!-- Node: Actions -->
    <g filter="url(#shadow)">
      <rect x="840" y="260" width="300" height="148" rx="22" fill="url(#node)" stroke="#2A3B52" stroke-width="1.2"></rect>
      <rect x="840" y="260" width="300" height="148" rx="22" fill="url(#shine)" opacity="0.45"></rect>
      <text x="868" y="298" class="h2">Actions</text>

      <rect x="1040" y="280" width="84" height="24" rx="12" fill="#0E2A20" stroke="#1D5D46" stroke-width="1"></rect>
      <circle cx="1054" cy="292" r="4.6" fill="#39E8C7"></circle>
      <text x="1066" y="296" class="chipText" fill="#A7FFE8">ONLINE</text>

      <text x="868" y="332" class="kpi">Sent</text>
      <text x="928" y="332" class="kpiVal">6</text>

      <text x="868" y="356" class="kpi">Failed</text>
      <text x="928" y="356" class="kpiVal">0</text>

      <text x="1000" y="332" class="kpi">p95 delivery</text>
      <text x="1090" y="332" class="kpiVal">220ms</text>

      <text x="868" y="392" class="muted">Last action: 8s ago</text>
    </g>

    <!-- Edges: Channels + Bots into Filters -->
    <g filter="url(#glow)">
      <path d="M364 230 C430 230, 406 300, 440 300" fill="none" stroke="#3BE8D7" stroke-width="2.6" marker-end="url(#arrow)"></path>
      <path d="M364 400 C430 400, 406 360, 440 360" fill="none" stroke="#3BE8D7" stroke-width="2.6" marker-end="url(#arrow)"></path>
      <!-- Filters to Actions -->
      <path d="M780 334 C820 334, 806 334, 840 334" fill="none" stroke="#3BE8D7" stroke-width="2.6" marker-end="url(#arrow)"></path>
    </g>

    <!-- Checkpoints -->
    <g>
      <circle cx="400" cy="250" r="12" fill="#0B1426" stroke="#1D5D46" stroke-width="1.2"></circle>
      <path d="M395 250 L399 254 L406 244" fill="none" stroke="#39E8C7" stroke-width="2.2" stroke-linecap="round" stroke-linejoin="round"></path>

      <circle cx="400" cy="380" r="12" fill="#0B1426" stroke="#1D5D46" stroke-width="1.2"></circle>
      <path d="M395 380 L399 384 L406 374" fill="none" stroke="#39E8C7" stroke-width="2.2" stroke-linecap="round" stroke-linejoin="round"></path>

      <circle cx="812" cy="334" r="12" fill="#0B1426" stroke="#1D5D46" stroke-width="1.2"></circle>
      <path d="M807 334 L811 338 L818 328" fill="none" stroke="#39E8C7" stroke-width="2.2" stroke-linecap="round" stroke-linejoin="round"></path>
    </g>

    <!-- Optional "drop" side path -->
    <g opacity="0.75">
      <path d="M610 418 C610 520, 690 560, 780 585" fill="none" stroke="#86A1B8" stroke-width="2" stroke-dasharray="6 6" marker-end="url(#arrowDim)"></path>
      <text x="684" y="610" class="muted">Dropped (14%)</text>
    </g>

    <!-- Mini legend in-canvas -->
    <g transform="translate(64,520)">
      <rect x="0" y="0" width="716" height="116" rx="18" fill="#0B1426" stroke="#23364A" stroke-width="1.2" opacity="0.92"></rect>
      <text x="18" y="28" class="h3">Quick ops</text>

      <circle cx="26" cy="52" r="6" fill="#39E8C7"></circle>
      <text x="40" y="56" class="body">Green: healthy</text>

      <circle cx="150" cy="52" r="6" fill="#F6C44D"></circle>
      <text x="164" y="56" class="body">Amber: degraded</text>

      <circle cx="292" cy="52" r="6" fill="#FF5C7A"></circle>
      <text x="306" y="56" class="body">Red: failing</text>

      <text x="18" y="84" class="muted">Click any node for Live Trace. Press "/" to search traces and errors.</text>
      <text x="18" y="104" class="muted">Use Simulate to test rule changes without side effects.</text>
    </g>
  </g>

  <!-- Right inspector content -->
  <g class="ui">
    <text x="1192" y="128" class="h1">Live Trace</text>
    <text x="1192" y="152" class="body">Deterministic view of recent messages and routing decisions.</text>

    <!-- Tabs -->
    <g transform="translate(1192,170)">
      <rect x="0" y="0" width="88" height="28" rx="14" fill="url(#accent)"></rect>
      <text x="22" y="19" class="btnText">NODE</text>

      <rect x="96" y="0" width="88" height="28" rx="14" fill="#0B1426" stroke="#23364A" stroke-width="1"></rect>
      <text x="118" y="19" class="chipText" fill="#B9CCE1">TRACE</text>

      <rect x="192" y="0" width="92" height="28" rx="14" fill="#0B1426" stroke="#23364A" stroke-width="1"></rect>
      <text x="214" y="19" class="chipText" fill="#B9CCE1">ALERTS</text>
    </g>

    <!-- Inspector card: Selected node -->
    <g transform="translate(1186,214)" filter="url(#shadow)">
      <rect x="0" y="0" width="364" height="182" rx="18" fill="#0B1426" stroke="#23364A" stroke-width="1.2" opacity="0.96"></rect>
      <text x="18" y="30" class="h2">Selected: Filters + Enrichment</text>

      <!-- KPIs -->
      <text x="18" y="60" class="kpi">Throughput</text>
      <text x="110" y="60" class="kpiVal">18/min</text>

      <text x="18" y="84" class="kpi">p95 latency</text>
      <text x="110" y="84" class="kpiVal">60ms</text>

      <text x="18" y="108" class="kpi">Match rate</text>
      <text x="110" y="108" class="kpiVal">39%</text>

      <text x="210" y="60" class="kpi">Drops</text>
      <text x="262" y="60" class="kpiVal">14%</text>

      <text x="210" y="84" class="kpi">Errors</text>
      <text x="262" y="84" class="kpiVal">0</text>

      <!-- Simulate button -->
      <rect x="18" y="126" width="148" height="34" rx="17" fill="url(#accent)"></rect>
      <text x="44" y="148" class="btnText">SIMULATE MESSAGE</text>

      <rect x="176" y="126" width="170" height="34" rx="17" fill="#0F1E33" stroke="#2A3B52" stroke-width="1"></rect>
      <text x="206" y="148" class="chipText" fill="#EAF2FF">OPEN RULEBOOK</text>
    </g>

    <!-- Inspector card: Recent traces list -->
    <g transform="translate(1186,410)" filter="url(#shadow)">
      <rect x="0" y="0" width="364" height="318" rx="18" fill="#0B1426" stroke="#23364A" stroke-width="1.2" opacity="0.96"></rect>
      <text x="18" y="30" class="h2">Recent traces</text>

      <!-- List rows -->
      <g transform="translate(18,48)">
        <!-- Row template -->
        <rect x="0" y="0" width="328" height="54" rx="14" fill="#0E1A2D" stroke="#203246" stroke-width="1"></rect>
        <circle cx="18" cy="27" r="7" fill="#39E8C7"></circle>
        <text x="34" y="22" class="h3">Time Signals (NIST)</text>
        <text x="34" y="40" class="mono">trace: 7f2c..b91  |  matched: rule.time-drift</text>
        <text x="266" y="22" class="muted">140ms</text>

        <rect x="0" y="64" width="328" height="54" rx="14" fill="#0E1A2D" stroke="#203246" stroke-width="1"></rect>
        <circle cx="18" cy="91" r="7" fill="#39E8C7"></circle>
        <text x="34" y="86" class="h3">System Monitor</text>
        <text x="34" y="104" class="mono">trace: a913..0e2  |  matched: rule.cpu-spike</text>
        <text x="266" y="86" class="muted">1.3s</text>

        <rect x="0" y="128" width="328" height="54" rx="14" fill="#0E1A2D" stroke="#203246" stroke-width="1"></rect>
        <circle cx="18" cy="155" r="7" fill="#F6C44D"></circle>
        <text x="34" y="150" class="h3">Random Data</text>
        <text x="34" y="168" class="mono">trace: 1c44..a7d  |  dropped: low-priority</text>
        <text x="266" y="150" class="muted">28ms</text>

        <rect x="0" y="192" width="328" height="54" rx="14" fill="#0E1A2D" stroke="#203246" stroke-width="1"></rect>
        <circle cx="18" cy="219" r="7" fill="#39E8C7"></circle>
        <text x="34" y="214" class="h3">Time Signals (NIST)</text>
        <text x="34" y="232" class="mono">trace: 9d0b..c21  |  routed: action.post-channel</text>
        <text x="266" y="214" class="muted">210ms</text>
      </g>
    </g>
  </g>

  <!-- Bottom timeline content -->
  <g class="ui" transform="translate(24,792)">
    <text x="32" y="34" class="h2">Events</text>
    <text x="32" y="58" class="muted">Deploys, connector health, auth changes, rule edits. Click to open the relevant trace or diff.</text>

    <g transform="translate(520,20)">
      <rect x="0" y="0" width="1036" height="44" rx="16" fill="#0B1426" stroke="#23364A" stroke-width="1.2"></rect>
      <text x="18" y="28" class="mono">20:12:04Z  connector.sample: heartbeat ok   |   20:12:11Z  rule.cpu-spike edited (v12)   |   20:12:17Z  action.webhook: 200 OK</text>
    </g>
  </g>

  <!-- Footer status -->
  <g class="ui">
    <text x="36" y="888" class="muted">Ready</text>
    <circle cx="88" cy="883" r="4.8" fill="#39E8C7"></circle>
    <text x="102" y="888" class="muted">All systems nominal</text>

    <text x="1350" y="888" class="muted">v0.9  |  local  |  127.0.0.1</text>
  </g>
</svg>
